HIERARCHY
ROOT hip
{
  OFFSET 0 0 0
  CHANNELS 6 Xposition Yposition Zposition Zrotation Yrotation Xrotation
  JOINT abdomen
  {
    OFFSET 0 20.6881 -0.73152
    CHANNELS 3 Zrotation Xrotation Yrotation
    JOINT chest
    {
      OFFSET 0 11.7043 -0.48768
      CHANNELS 3 Zrotation Xrotation Yrotation
      JOINT neck
      {
        OFFSET 0 22.1894 -2.19456
        CHANNELS 3 Zrotation Xrotation Yrotation
        JOINT head
        {
          OFFSET -0.24384 7.07133 1.2192
          CHANNELS 3 Zrotation Xrotation Yrotation
          JOINT leftEye
          {
            OFFSET 4.14528 8.04674 8.04672
            CHANNELS 3 Zrotation Xrotation Yrotation
            End Site
            {
              OFFSET 1 0 0
            }
          }
          JOINT rightEye
          {
            OFFSET -3.6576 8.04674 8.04672
            CHANNELS 3 Zrotation Xrotation Yrotation
            End Site
            {
              OFFSET 1 0 0
            }
          }
        }
      }
      JOINT rCollar
      {
        OFFSET -2.68224 19.2634 -4.8768
        CHANNELS 3 Zrotation Xrotation Yrotation
        JOINT rShldr
        {
          OFFSET -8.77824 -1.95073 1.46304
          CHANNELS 3 Zrotation Xrotation Yrotation
          JOINT rForeArm
          {
            OFFSET -28.1742 -1.7115 0.48768
            CHANNELS 3 Zrotation Xrotation Yrotation
            JOINT rHand
            {
              OFFSET -22.5879 0.773209 7.07136
              CHANNELS 3 Zrotation Xrotation Yrotation
              JOINT rThumb1
              {
                OFFSET -1.2192 -0.487915 3.41376
                CHANNELS 3 Zrotation Xrotation Yrotation
                JOINT rThumb2
                {
                  OFFSET -3.37035 -0.52449 3.41376
                  CHANNELS 3 Zrotation Xrotation Yrotation
                  End Site
                  {
                    OFFSET -1.78271 -1.18214 1.43049
                  }
                }
              }
              JOINT rIndex1
              {
                OFFSET -7.75947 0.938293 5.60832
                CHANNELS 3 Zrotation Xrotation Yrotation
                JOINT rIndex2
                {
                  OFFSET -2.54057 -0.884171 1.56538
                  CHANNELS 3 Zrotation Xrotation Yrotation
                  End Site
                  {
                    OFFSET -1.62519 -0.234802 1.16502
                  }
                }
              }
              JOINT rMid1
              {
                OFFSET -8.24714 1.18213 3.41376
                CHANNELS 3 Zrotation Xrotation Yrotation
                JOINT rMid2
                {
                  OFFSET -3.10165 -0.590103 1.0647
                  CHANNELS 3 Zrotation Xrotation Yrotation
                  End Site
                  {
                    OFFSET -2.48547 -0.328903 0.83742
                  }
                }
              }
              JOINT rRing1
              {
                OFFSET -8.82822 0.546677 1.51678
                CHANNELS 3 Zrotation Xrotation Yrotation
                JOINT rRing2
                {
                  OFFSET -2.60934 -0.819778 -0.0198488
                  CHANNELS 3 Zrotation Xrotation Yrotation
                  End Site
                  {
                    OFFSET -2.33842 -0.294052 0.168128
                  }
                }
              }
              JOINT rPinky1
              {
                OFFSET -8.27202 -0.0477905 -0.4584
                CHANNELS 3 Zrotation Xrotation Yrotation
                JOINT rPinky2
                {
                  OFFSET -1.82734 -0.647385 -0.700984
                  CHANNELS 3 Zrotation Xrotation Yrotation
                  End Site
                  {
                    OFFSET -1.69225 -0.51767 -0.607171
                  }
                }
              }
            }
          }
        }
      }
      JOINT lCollar
      {
        OFFSET 2.68224 19.2634 -4.8768
        CHANNELS 3 Zrotation Xrotation Yrotation
        JOINT lShldr
        {
          OFFSET 8.77824 -1.95073 1.46304
          CHANNELS 3 Zrotation Xrotation Yrotation
          JOINT lForeArm
          {
            OFFSET 28.1742 -1.7115 0.48768
            CHANNELS 3 Zrotation Xrotation Yrotation
            JOINT lHand
            {
              OFFSET 22.5879 0.773209 7.07136
              CHANNELS 3 Zrotation Xrotation Yrotation
              JOINT lThumb1
              {
                OFFSET 1.2192 -0.487915 3.41376
                CHANNELS 3 Zrotation Xrotation Yrotation
                JOINT lThumb2
                {
                  OFFSET 3.37035 -0.52449 3.41376
                  CHANNELS 3 Zrotation Xrotation Yrotation
                  End Site
                  {
                    OFFSET 1.78271 -1.18214 1.43049
                  }
                }
              }
              JOINT lIndex1
              {
                OFFSET 7.75947 0.938293 5.60832
                CHANNELS 3 Zrotation Xrotation Yrotation
                JOINT lIndex2
                {
                  OFFSET 2.54057 -0.884171 1.56538
                  CHANNELS 3 Zrotation Xrotation Yrotation
                  End Site
                  {
                    OFFSET 1.62519 -0.234802 1.16502
                  }
                }
              }
              JOINT lMid1
              {
                OFFSET 8.24714 1.18213 3.41376
                CHANNELS 3 Zrotation Xrotation Yrotation
                JOINT lMid2
                {
                  OFFSET 3.10165 -0.590103 1.0647
                  CHANNELS 3 Zrotation Xrotation Yrotation
                  End Site
                  {
                    OFFSET 2.48547 -0.328903 0.83742
                  }
                }
              }
              JOINT lRing1
              {
                OFFSET 8.82822 0.546677 1.51678
                CHANNELS 3 Zrotation Xrotation Yrotation
                JOINT lRing2
                {
                  OFFSET 2.60934 -0.819778 -0.0198488
                  CHANNELS 3 Zrotation Xrotation Yrotation
                  End Site
                  {
                    OFFSET 2.33842 -0.294052 0.168128
                  }
                }
              }
              JOINT lPinky1
              {
                OFFSET 8.27202 -0.0477905 -0.4584
                CHANNELS 3 Zrotation Xrotation Yrotation
                JOINT lPinky2
                {
                  OFFSET 1.82734 -0.647385 -0.700984
                  CHANNELS 3 Zrotation Xrotation Yrotation
                  End Site
                  {
                    OFFSET 1.69225 -0.51767 -0.607171
                  }
                }
              }
            }
          }
        }
      }
    }
  }
  JOINT rButtock
  {
    OFFSET -8.77824 4.35084 1.2192
    CHANNELS 3 Zrotation Xrotation Yrotation
    JOINT rThigh
    {
      OFFSET 0 -1.70687 -2.19456
      CHANNELS 3 Zrotation Xrotation Yrotation
      JOINT rShin
      {
        OFFSET 0 -36.8199 0.73152
        CHANNELS 3 Zrotation Xrotation Yrotation
        JOINT rFoot
        {
          OFFSET 0.73152 -45.1104 -5.12064
          CHANNELS 3 Zrotation Xrotation Yrotation
          End Site
          {
            OFFSET -1.1221 -3.69964 12.103
          }
        }
      }
    }
  }
  JOINT lButtock
  {
    OFFSET 8.77824 4.35084 1.2192
    CHANNELS 3 Zrotation Xrotation Yrotation
    JOINT lThigh
    {
      OFFSET 0 -1.70687 -2.19456
      CHANNELS 3 Zrotation Xrotation Yrotation
      JOINT lShin
      {
        OFFSET 0 -36.8199 0.73152
        CHANNELS 3 Zrotation Xrotation Yrotation
        JOINT lFoot
        {
          OFFSET -0.73152 -45.1104 -5.12064
          CHANNELS 3 Zrotation Xrotation Yrotation
          End Site
          {
            OFFSET 1.1221 -3.69964 12.103
          }
        }
      }
    }
  }
}
MOTION
Frames:	6
Frame Time:	0.00833333
80.0602 84.5294 14.6928 0.0 0.0 0.0 -0.769347 -0.00386029 -0.0215834 -0.212073 -0.00504113 -0.036744 -2.20691e-14 7.95139e-16 -9.93923e-17 -6.61487e-14 9.54166e-15 -3.88251e-16 -0.0 0.0 0.0 -0.0 0.0 0.0 -1.11337e-14 -1.47535e-17 0.0 -2.29096e-13 -8.07563e-17 -5.96354e-16 -3.9829e-12 1.18615e-12 -1.90833e-14 -4.56454e-11 -1.24265e-12 -3.08514e-13 -1.07663e-10 -1.26641e-13 -7.06083e-13 -1.85931e-10 -2.25819e-13 -1.23644e-12 -1.07655e-10 -1.23644e-13 -7.12444e-13 7.73091 5.47488 0.417314 -1.07661e-10 -1.26328e-13 -7.06083e-13 2.90554 0.965183 0.102902 -1.0765e-10 -1.2593e-13 -7.1483e-13 10.2786 0.731801 0.0259123 -1.07665e-10 -1.25632e-13 -7.12444e-13 2.22167 -0.733487 -0.20892 -1.11309e-14 -1.59183e-17 -9.93923e-17 -2.34211e-13 -6.83322e-17 -3.18055e-15 -3.99194e-12 -1.20126e-12 3.18055e-14 -4.5653e-11 1.15481e-12 -3.68944e-13 -1.07692e-10 -1.04783e-13 -7.25166e-13 -1.85965e-10 -1.74931e-13 -1.23803e-12 -1.07698e-10 -1.00187e-13 -7.09264e-13 -7.73091 5.47488 -0.417314 -1.07692e-10 -1.04263e-13 -7.18805e-13 -2.90554 0.965183 -0.102902 -1.07702e-10 -1.04163e-13 -7.1801e-13 -10.2786 0.731801 -0.0259123 -1.07688e-10 -1.0297e-13 -7.18805e-13 -2.22167 -0.733487 0.20892 -2.03217e-16 0.0 -3.88251e-19 -0.0538918 -2.09674 -0.0177085 -0.00904032 -1.75492 -0.0760442 -0.528954 3.85119 0.13978 2.03217e-16 0.0 3.88251e-19 -1.11485 -4.98914 0.0938574 0.0011513 3.48419 -0.00507233 0.536988 1.50463 -0.0922774
72.6818 82.9829 7.90347 91.812 -89.152 -93.4957 -1.17724 -1.81964 0.144495 -0.655023 2.5361 0.0472357 -0.501666 5.23519 -0.283372 1.87372 -3.91003 -0.568416 -0.0 0.0 0.0 -0.0 0.0 0.0 -8.04391e-15 -2.838e-14 -6.93029e-16 21.1517 12.1862 3.06175 -8.03245 -4.95608 10.8071 0.0312812 3.92491 0.546944 -1.23183e-10 3.51002e-12 -2.05893e-11 -2.13329e-10 6.61583e-12 -3.45778e-11 -1.23178e-10 3.51081e-12 -2.05955e-11 7.73091 5.47488 0.417314 -1.23181e-10 3.5086e-12 -2.05892e-11 2.90554 0.965183 0.102902 -1.23171e-10 3.50876e-12 -2.05954e-11 10.2786 0.731801 0.0259123 -1.23187e-10 3.50959e-12 -2.05913e-11 2.22167 -0.733487 -0.20892 -8.09546e-15 -2.83784e-14 -8.46776e-16 -19.9474 11.9204 -3.00118 7.68621 -4.64066 -10.499 -0.0437567 4.6436 -0.644901 1.96292e-11 5.51225e-12 3.78116e-11 3.49474e-11 1.01677e-11 6.34382e-11 1.96238e-11 5.51532e-12 3.7824e-11 -7.73091 5.47488 -0.417314 1.96282e-11 5.51168e-12 3.78153e-11 -2.90554 0.965183 -0.102902 1.96199e-11 5.51293e-12 3.78174e-11 -10.2786 0.731801 -0.0259123 1.96324e-11 5.51379e-12 3.78172e-11 -2.22167 -0.733487 0.20892 -2.03217e-16 0.0 -3.88251e-19 -1.99484 -6.1521 0.900718 0.0355193 10.764 0.128553 -1.38225 -3.04532 -5.1443 2.03217e-16 0.0 3.88251e-19 1.48549 -8.2809 1.51466 -0.0106784 14.1442 -0.176622 1.3842 -6.34736 4.68456
72.6817 82.9794 7.87656 94.6604 -89.2573 -96.3493 -1.60022 -3.74051 0.319645 -1.12828 5.22597 0.13609 -0.977899 10.7659 -0.59274 3.77095 -8.01896 -1.18434 -0.0 0.0 0.0 -0.0 0.0 0.0 -4.76522e-15 -5.67125e-14 -1.35111e-15 41.9615 24.9503 6.79733 -14.5174 -9.60483 22.4792 -0.0178718 8.07377 1.13386 -1.41378e-10 7.66181e-12 -4.25701e-11 -2.45404e-10 1.43827e-11 -7.14694e-11 -1.41375e-10 7.66017e-12 -4.25761e-11 7.73091 5.47488 0.417314 -1.41375e-10 7.65844e-12 -4.25699e-11 2.90554 0.965183 0.102902 -1.41366e-10 7.6584e-12 -4.25734e-11 10.2786 0.731801 0.0259123 -1.41384e-10 7.65982e-12 -4.25675e-11 2.22167 -0.733487 -0.20892 -4.87618e-15 -5.67079e-14 -1.56232e-15 -39.5599 24.4098 -6.63715 13.9872 -9.02581 -21.8105 0.0251564 9.56013 -1.34223 1.55824e-10 1.23365e-11 7.83281e-11 2.71261e-10 2.2641e-11 1.31401e-10 1.5582e-10 1.2338e-11 7.83367e-11 -7.73091 5.47488 -0.417314 1.55823e-10 1.23348e-11 7.83289e-11 -2.90554 0.965183 -0.102902 1.55817e-10 1.23373e-11 7.83323e-11 -10.2786 0.731801 -0.0259123 1.55827e-10 1.23378e-11 7.83329e-11 -2.22167 -0.733487 0.20892 -2.03217e-16 0.0 -3.88251e-19 -3.90554 -10.4344 1.89311 -0.0218255 23.9981 0.372446 -3.67738 -10.1788 -10.8882 2.03217e-16 0.0 3.88251e-19 4.41322 -11.7487 3.04901 0.0532828 25.4123 -0.384043 3.73741 -14.4779 9.99485
72.691 82.9746 7.87759 92.6938 -89.2688 -94.3397 -1.96133 -5.45103 0.478599 -1.56342 7.61833 0.216971 -1.34452 15.704 -0.879397 5.38424 -11.7254 -1.73755 -0.0 0.0 0.0 -0.0 0.0 0.0 -1.8643e-15 -8.51105e-14 -2.07909e-15 58.7826 36.0895 11.1347 -18.7079 -12.7502 33.219 -0.135036 11.7704 1.67215 -1.54224e-10 1.07833e-11 -6.03558e-11 -2.68127e-10 2.02991e-11 -1.01261e-10 -1.54223e-10 1.07797e-11 -6.03617e-11 7.73091 5.47488 0.417314 -1.54221e-10 1.07785e-11 -6.03556e-11 2.90554 0.965183 0.102902 -1.54213e-10 1.07781e-11 -6.03566e-11 10.2786 0.731801 0.0259123 -1.54232e-10 1.078e-11 -6.03491e-11 2.22167 -0.733487 -0.20892 -2.0246e-15 -8.51034e-14 -2.34154e-15 -55.3988 35.3228 -10.8185 18.1498 -12.0516 -32.1838 0.190343 13.9236 -1.98675 2.74271e-10 1.67463e-11 1.14885e-10 4.76772e-10 3.0853e-11 1.92791e-10 2.74268e-10 1.67463e-11 1.14891e-10 -7.73091 5.47488 -0.417314 2.74269e-10 1.67436e-11 1.14884e-10 -2.90554 0.965183 -0.102902 2.74265e-10 1.67471e-11 1.14888e-10 -10.2786 0.731801 -0.0259123 2.74274e-10 1.67473e-11 1.14889e-10 -2.22167 -0.733487 0.20892 -2.03217e-16 0.0 -3.88251e-19 -5.47587 -14.2487 2.80845 -0.190897 35.8001 0.654565 -6.97534 -16.2287 -16.359 2.03217e-16 0.0 3.88251e-19 7.19119 -14.8299 4.45839 0.195587 35.4629 -0.618398 7.2001 -21.4098 15.2252
72.6961 82.9714 7.87104 93.6303 -89.2927 -95.2515 -2.18994 -6.63586 0.595215 -1.88748 9.26698 0.276184 -1.5537 19.162 -1.08111 6.4582 -14.4303 -2.10332 -0.0 0.0 0.0 -0.0 0.0 0.0 9.22044e-17 -1.13673e-13 -2.98177e-15 69.149 43.6031 15.1667 -20.8817 -14.1628 40.8659 -0.259058 14.3405 2.05904 -1.53699e-10 1.13291e-11 -6.76536e-11 -2.67472e-10 2.15896e-11 -1.133e-10 -1.537e-10 1.13248e-11 -6.76599e-11 7.73091 5.47488 0.417314 -1.53696e-10 1.1324e-11 -6.76536e-11 2.90554 0.965183 0.102902 -1.53689e-10 1.13232e-11 -6.76528e-11 10.2786 0.731801 0.0259123 -1.53709e-10 1.13252e-11 -6.7644e-11 2.22167 -0.733487 -0.20892 -9.22544e-17 -1.13664e-13 -3.27995e-15 -65.1343 42.7016 -14.6797 20.3575 -13.468 -39.5548 0.364126 16.9114 -2.449 3.48345e-10 1.51204e-11 1.41544e-10 6.05278e-10 2.84119e-11 2.37747e-10 3.48343e-10 1.51188e-11 1.41547e-10 -7.73091 5.47488 -0.417314 3.48344e-10 1.51165e-11 1.41541e-10 -2.90554 0.965183 -0.102902 3.4834e-10 1.51204e-11 1.41547e-10 -10.2786 0.731801 -0.0259123 3.48349e-10 1.51208e-11 1.41547e-10 -2.22167 -0.733487 0.20892 -2.03217e-16 0.0 -3.88251e-19 -6.48232 -16.9063 3.46701 -0.406098 44.0237 0.922381 -10.0069 -20.1749 -20.4652 2.03217e-16 0.0 3.88251e-19 9.23402 -16.9755 5.46881 0.36168 42.4708 -0.831618 10.4542 -25.9625 19.2882
72.7008 82.9682 7.86057 93.7503 -89.3428 -95.3502 -2.23393 -7.08296 0.650007 -2.05089 9.87632 0.303463 -1.59471 20.5845 -1.14492 6.85401 -15.8288 -2.17996 -0.0 0.0 0.0 -0.0 0.0 0.0 6.96151e-16 -1.48164e-13 -4.41442e-15 72.8643 46.4478 17.0301 -21.6004 -14.5148 43.8858 -0.316857 15.3327 2.21187 -1.2881e-10 -8.52203e-13 -6.68375e-11 -2.24376e-10 6.55964e-13 -1.11857e-10 -1.28811e-10 -8.55491e-13 -6.68452e-11 7.73091 5.47488 0.417314 -1.28808e-10 -8.55759e-13 -6.68383e-11 2.90554 0.965183 0.102902 -1.28802e-10 -8.57516e-13 -6.68364e-11 10.2786 0.731801 0.0259123 -1.2882e-10 -8.5598e-13 -6.68269e-11 2.22167 -0.733487 -0.20892 5.27602e-16 -1.48155e-13 -4.72657e-15 -68.5473 45.5037 -16.4947 21.0927 -13.8395 -42.4555 0.440224 17.9689 -2.61813 3.48988e-10 -5.79086e-12 1.56993e-10 6.06413e-10 -7.69302e-12 2.64379e-10 3.48987e-10 -5.79458e-12 1.56996e-10 -7.73091 5.47488 -0.417314 3.48986e-10 -5.7962e-12 1.5699e-10 -2.90554 0.965183 -0.102902 3.48984e-10 -5.79313e-12 1.56996e-10 -10.2786 0.731801 -0.0259123 3.48994e-10 -5.79171e-12 1.56996e-10 -2.22167 -0.733487 0.20892 -2.03217e-16 0.0 -3.88251e-19 -6.82414 -17.9543 3.72587 -0.521354 47.2381 1.05126 -11.365 -21.643 -22.1539 2.03217e-16 0.0 3.88251e-19 10.0885 -17.8346 5.86741 0.446998 45.222 -0.93354 11.9352 -27.6592 21.0041
